<svg width="40" height="40" viewBox="0 0 40 40" fill="none" xmlns="http://www.w3.org/2000/svg">
<path d="M20 39.1668C9.41429 39.1668 0.833374 30.5859 0.833374 20.0002C0.833374 9.41441 9.41429 0.833496 20 0.833496C30.5858 0.833496 39.1667 9.41441 39.1667 20.0002C39.1552 30.5802 30.58 39.1553 20 39.1668ZM11.8101 25.3419C11.5629 25.3419 11.3175 25.3726 11.076 25.4301L10.7885 25.5087L9.65004 27.4579C9.44208 27.8048 9.37531 28.2183 9.46351 28.613C9.55171 29.0077 9.78815 29.3535 10.124 29.5788C10.4598 29.8042 10.8694 29.892 11.2681 29.824C11.6668 29.756 12.0241 29.5375 12.2663 29.2136L12.3851 29.0353L13.8993 26.4076C13.6539 26.0794 13.3359 25.8124 12.9701 25.6275C12.6043 25.4426 12.2008 25.3449 11.791 25.3419H11.8101ZM22.3211 13.5985C21.7248 14.1587 21.3294 14.8996 21.196 15.7068C20.9823 16.8199 21.1871 17.9727 21.771 18.9441L27.5977 29.0372C27.8005 29.3784 28.1239 29.6311 28.5039 29.7454C28.884 29.8597 29.2932 29.8272 29.6505 29.6544C30.0067 29.4787 30.2836 29.175 30.4257 28.8041C30.5678 28.4331 30.5648 28.0222 30.4171 27.6534L30.3232 27.4617L28.7899 24.7957H31.0707C31.4701 24.7923 31.8534 24.6376 32.1432 24.3626C32.433 24.0877 32.6077 23.7131 32.632 23.3144C32.6563 22.9157 32.5285 22.5226 32.2743 22.2145C32.0201 21.9063 31.6584 21.7061 31.2624 21.6542L31.0707 21.6427H26.969L22.7639 14.3594L22.325 13.5927L22.3211 13.5985ZM8.99837 21.6293C8.79241 21.6298 8.58857 21.671 8.39853 21.7504C8.20848 21.8298 8.03597 21.9459 7.89086 22.092C7.74576 22.2382 7.63092 22.4116 7.55292 22.6022C7.47491 22.7928 7.43528 22.997 7.43629 23.2029C7.43629 23.9964 8.02662 24.6672 8.81437 24.7688L9.00604 24.7784H23.3427C23.5014 24.4598 23.5812 24.1078 23.5755 23.7519C23.5699 23.396 23.4789 23.0467 23.3101 22.7333C23.1666 22.4397 22.9528 22.1862 22.6876 21.9952C22.4224 21.8043 22.1141 21.6819 21.7902 21.6389L21.5583 21.6274H16.6689L23.4309 9.9185C23.6392 9.55553 23.6956 9.12499 23.588 8.72058C23.5115 8.43678 23.3573 8.17997 23.1427 7.97906C22.9281 7.77815 22.6618 7.6411 22.3736 7.58334C22.0853 7.52557 21.7867 7.54939 21.5113 7.65211C21.2359 7.75482 20.9946 7.93236 20.8146 8.16475L20.6958 8.34108L20 9.55625L19.312 8.34108C19.1092 7.99941 18.7854 7.74637 18.4049 7.63207C18.0244 7.51777 17.6148 7.55055 17.2573 7.72391C16.9012 7.90034 16.6246 8.20438 16.4825 8.57553C16.3404 8.94668 16.3433 9.35772 16.4906 9.72683L16.5845 9.9185L18.1754 12.7168L13.0291 21.6293H8.99837Z" fill="white"/>
</svg>
