<svg width="32" height="31" viewBox="0 0 32 31" fill="none" xmlns="http://www.w3.org/2000/svg">
<path d="M29.5385 5.16667H23.3846V3.875C23.3806 2.84859 22.9903 1.86544 22.2987 1.13966C21.6071 0.413873 20.6703 0.00425018 19.6923 0H12.3077C11.3297 0.00425018 10.3929 0.413873 9.70131 1.13966C9.00974 1.86544 8.61943 2.84859 8.61539 3.875V5.16667H2.46154C1.8087 5.16667 1.1826 5.43884 0.720968 5.92331C0.25934 6.40778 0 7.06486 0 7.75V28.4167C0 29.1018 0.25934 29.7589 0.720968 30.2434C1.1826 30.7278 1.8087 31 2.46154 31H29.5385C30.1913 31 30.8174 30.7278 31.279 30.2434C31.7407 29.7589 32 29.1018 32 28.4167V7.75C32 7.06486 31.7407 6.40778 31.279 5.92331C30.8174 5.43884 30.1913 5.16667 29.5385 5.16667ZM11.0769 3.875C11.0769 3.53243 11.2066 3.20389 11.4374 2.96165C11.6682 2.71942 11.9813 2.58333 12.3077 2.58333H19.6923C20.0187 2.58333 20.3318 2.71942 20.5626 2.96165C20.7934 3.20389 20.9231 3.53243 20.9231 3.875V5.16667H11.0769V3.875ZM29.5385 7.75V14.4667C25.3854 16.8429 20.7302 18.0865 16 18.0833C11.2698 18.0865 6.61462 16.8429 2.46154 14.4667V7.75H29.5385ZM12.9231 14.2083C12.9231 13.8658 13.0527 13.5372 13.2836 13.295C13.5144 13.0528 13.8274 12.9167 14.1538 12.9167H17.8462C18.1726 12.9167 18.4856 13.0528 18.7164 13.295C18.9473 13.5372 19.0769 13.8658 19.0769 14.2083C19.0769 14.5509 18.9473 14.8794 18.7164 15.1217C18.4856 15.3639 18.1726 15.5 17.8462 15.5H14.1538C13.8274 15.5 13.5144 15.3639 13.2836 15.1217C13.0527 14.8794 12.9231 14.5509 12.9231 14.2083Z" fill="url(#paint0_linear_18_124)"/>
<defs>
<linearGradient id="paint0_linear_18_124" x1="16" y1="0" x2="16" y2="31" gradientUnits="userSpaceOnUse">
<stop stop-color="#EA14FA"/>
<stop offset="1" stop-color="#2519F9"/>
</linearGradient>
</defs>
</svg>
