<svg width="136" height="130" viewBox="0 0 136 130" fill="none" xmlns="http://www.w3.org/2000/svg">
<mask id="mask0_4_142" style="mask-type:alpha" maskUnits="userSpaceOnUse" x="6" y="19" width="111" height="111">
<rect x="37.871" width="110.482" height="110.482" rx="55.2411" transform="rotate(27.4158 37.871 0)" fill="#D9D9D9"/>
</mask>
<g mask="url(#mask0_4_142)">
<path d="M41.0659 0.895172L-10.1165 99.5694L-12.9333 98.1083L38.2492 -0.5659L41.0659 0.895172ZM46.7048 3.82008L-4.47761 102.494L-7.29706 101.032L43.8854 2.35763L46.7048 3.82008ZM52.3437 6.74499L1.1613 105.419L-1.65815 103.957L49.5243 5.28253L52.3437 6.74499ZM57.9827 9.6699L6.80021 108.344L3.98076 106.882L55.1632 8.20745L57.9827 9.6699ZM63.6216 12.5948L12.4391 111.269L9.617 109.805L60.7994 11.131L63.6216 12.5948ZM69.2605 15.5197L18.078 114.194L15.2586 112.731L66.441 14.0573L69.2605 15.5197ZM74.8994 18.4446L23.7169 117.119L20.8975 115.656L72.0799 16.9822L74.8994 18.4446ZM80.5383 21.3695L29.3558 120.044L26.5364 118.581L77.7188 19.9071L80.5383 21.3695ZM86.1772 24.2944L34.9948 122.969L32.174 121.506L83.3564 22.8313L86.1772 24.2944ZM91.8161 27.2194L40.6337 125.894L37.8142 124.431L88.9967 25.7569L91.8161 27.2194ZM97.455 30.1443L46.2726 128.818L43.4531 127.356L94.6356 28.6818L97.455 30.1443ZM103.094 33.0692L51.9115 131.743L49.092 130.281L100.274 31.6067L103.094 33.0692ZM108.733 35.9941L57.5504 134.668L54.7309 133.206L105.913 34.5316L108.733 35.9941ZM114.372 38.919L63.1893 137.593L60.3698 136.131L111.552 37.4565L114.372 38.919ZM120.011 41.8439L68.8282 140.518L66.0087 139.056L117.191 40.3814L120.011 41.8439ZM125.65 44.7688L74.4671 143.443L71.6477 141.981L122.83 43.3064L125.65 44.7688ZM131.288 47.6937L80.106 146.368L77.2866 144.905L128.469 46.2313L131.288 47.6937ZM136.923 50.6166L85.7409 149.291L82.9215 147.828L134.104 49.1541L136.923 50.6166Z" fill="url(#paint0_linear_4_142)" fill-opacity="0.2"/>
</g>
<defs>
<linearGradient id="paint0_linear_4_142" x1="36.4038" y1="123.7" x2="87.5863" y2="25.0253" gradientUnits="userSpaceOnUse">
<stop stop-color="#EA14FA"/>
<stop offset="1" stop-color="#2519F9"/>
</linearGradient>
</defs>
</svg>
