<svg width="147" height="147" viewBox="0 0 147 147" fill="none" xmlns="http://www.w3.org/2000/svg">
<mask id="mask0_18_98" style="mask-type:alpha" maskUnits="userSpaceOnUse" x="0" y="0" width="147" height="147">
<rect width="147" height="147" rx="73.5" fill="#D9D9D9"/>
</mask>
<g mask="url(#mask0_18_98)">
<path d="M4.32199 -0.899981L4.32201 147L0.100006 147L0.0999932 -0.899981L4.32199 -0.899981ZM12.774 -0.899982L12.774 147L8.548 147L8.54799 -0.899982L12.774 -0.899982ZM21.226 -0.899983L21.226 147L17 147L17 -0.899982L21.226 -0.899983ZM29.678 -0.899984L29.678 147L25.452 147L25.452 -0.899983L29.678 -0.899984ZM38.13 -0.899984L38.13 147L33.9 147L33.9 -0.899984L38.13 -0.899984ZM46.582 -0.899985L46.582 147L42.356 147L42.356 -0.899985L46.582 -0.899985ZM55.034 -0.899986L55.034 147L50.808 147L50.808 -0.899985L55.034 -0.899986ZM63.486 -0.899987L63.486 147L59.26 147L59.26 -0.899986L63.486 -0.899987ZM71.938 -0.899987L71.938 147L67.71 147L67.71 -0.899987L71.938 -0.899987ZM80.39 -0.899988L80.39 147L76.164 147L76.164 -0.899988L80.39 -0.899988ZM88.842 -0.899989L88.842 147L84.616 147L84.616 -0.899988L88.842 -0.899989ZM97.294 -0.899989L97.294 147L93.068 147L93.068 -0.899989L97.294 -0.899989ZM105.746 -0.89999L105.746 147L101.52 147L101.52 -0.89999L105.746 -0.89999ZM114.198 -0.899991L114.198 147L109.972 147L109.972 -0.899991L114.198 -0.899991ZM122.65 -0.899992L122.65 147L118.424 147L118.424 -0.899991L122.65 -0.899992ZM131.102 -0.899992L131.102 147L126.876 147L126.876 -0.899992L131.102 -0.899992ZM139.554 -0.899993L139.554 147L135.328 147L135.328 -0.899993L139.554 -0.899993ZM148 -0.899994L148 147L143.774 147L143.774 -0.899994L148 -0.899994Z" fill="url(#paint0_linear_18_98)" fill-opacity="0.2"/>
</g>
<defs>
<linearGradient id="paint0_linear_18_98" x1="74.05" y1="147" x2="74.05" y2="-0.899987" gradientUnits="userSpaceOnUse">
<stop stop-color="#EA14FA"/>
<stop offset="1" stop-color="#2519F9"/>
</linearGradient>
</defs>
</svg>
