<svg width="39" height="101" viewBox="0 0 39 101" fill="none" xmlns="http://www.w3.org/2000/svg">
<mask id="mask0_18_110" style="mask-type:alpha" maskUnits="userSpaceOnUse" x="0" y="0" width="101" height="101">
<rect width="101" height="101" rx="50.5" fill="#D9D9D9"/>
</mask>
<g mask="url(#mask0_18_110)">
<path d="M2.96947 -0.618356L2.96948 101L0.0686471 101L0.0686382 -0.618356L2.96947 -0.618356ZM8.77662 -0.618357L8.77663 101L5.87305 101L5.87305 -0.618356L8.77662 -0.618357ZM14.5838 -0.618357L14.5838 101L11.6802 101L11.6802 -0.618357L14.5838 -0.618357ZM20.3909 -0.618358L20.3909 101L17.4874 101L17.4874 -0.618357L20.3909 -0.618358ZM26.1981 -0.618358L26.1981 101L23.2918 101L23.2918 -0.618358L26.1981 -0.618358ZM32.0052 -0.618359L32.0053 101L29.1017 101L29.1017 -0.618358L32.0052 -0.618359ZM37.8124 -0.618359L37.8124 101L34.9088 101L34.9088 -0.618359L37.8124 -0.618359ZM43.6196 -0.61836L43.6196 101L40.716 101L40.716 -0.618359L43.6196 -0.61836ZM49.4267 -0.61836L49.4267 101L46.5218 101L46.5218 -0.61836L49.4267 -0.61836ZM55.2339 -0.618361L55.2339 101L52.3303 101L52.3303 -0.61836L55.2339 -0.618361ZM61.041 -0.618361L61.041 101L58.1375 101L58.1375 -0.618361L61.041 -0.618361ZM66.8482 -0.618362L66.8482 101L63.9446 101L63.9446 -0.618361L66.8482 -0.618362ZM72.6553 -0.618362L72.6554 101L69.7518 101L69.7518 -0.618362L72.6553 -0.618362ZM78.4625 -0.618363L78.4625 101L75.5589 101L75.5589 -0.618362L78.4625 -0.618363ZM84.2697 -0.618363L84.2697 101L81.3661 101L81.3661 -0.618363L84.2697 -0.618363ZM90.0768 -0.618364L90.0768 101L87.1732 101L87.1732 -0.618363L90.0768 -0.618364ZM95.884 -0.618364L95.884 101L92.9804 101L92.9804 -0.618364L95.884 -0.618364ZM101.687 -0.618365L101.687 101L98.7834 101L98.7834 -0.618364L101.687 -0.618365Z" fill="url(#paint0_linear_18_110)"/>
</g>
<defs>
<linearGradient id="paint0_linear_18_110" x1="50.8778" y1="101" x2="50.8778" y2="-0.618358" gradientUnits="userSpaceOnUse">
<stop stop-color="#EA14FA"/>
<stop offset="1" stop-color="#2519F9"/>
</linearGradient>
</defs>
</svg>
