<svg width="255" height="246" viewBox="0 0 255 246" fill="none" xmlns="http://www.w3.org/2000/svg">
<g filter="url(#filter0_d_29_1175)">
<path d="M215.109 187.111C215.109 180.359 212.43 173.883 207.66 169.108C202.891 164.333 196.423 161.651 189.678 161.651C182.933 161.651 176.465 164.333 171.695 169.108C166.926 173.883 164.247 180.359 164.247 187.111H145.193C145.166 181.246 146.297 175.432 148.52 170.006C150.744 164.579 154.016 159.645 158.15 155.488C162.283 151.33 167.196 148.032 172.606 145.781C178.017 143.53 183.818 142.371 189.677 142.371C195.536 142.371 201.337 143.53 206.748 145.781C212.158 148.032 217.071 151.33 221.204 155.488C225.338 159.645 228.61 164.579 230.833 170.006C233.057 175.432 234.188 181.246 234.161 187.111H215.109ZM47.0685 142.575V57.9979H20.0024V38.9208H47.0685V10H66.1219V38.9227H126.14H189.685C199.656 38.9114 209.342 42.2497 217.193 48.4031C225.044 54.5565 230.606 63.1692 232.988 72.8623C235.37 82.5554 234.435 92.7685 230.332 101.866C226.229 110.964 219.196 118.421 210.358 123.043C201.52 127.664 191.389 129.184 181.587 127.358C171.784 125.532 162.877 120.466 156.292 112.971C149.706 105.476 145.822 95.9855 145.263 86.019C144.703 76.0526 147.5 66.1863 153.205 57.9998H66.1285V142.573C66.1285 149.326 68.8079 155.802 73.5771 160.577C78.3464 165.351 84.8149 168.034 91.5596 168.034C98.3044 168.034 104.773 165.351 109.542 160.577C114.311 155.802 116.991 149.326 116.991 142.573H136.038C136.065 148.439 134.934 154.252 132.71 159.679C130.487 165.106 127.215 170.04 123.081 174.197C118.948 178.354 114.035 181.653 108.625 183.904C103.214 186.155 97.4129 187.314 91.554 187.314C85.695 187.314 79.8937 186.155 74.4833 183.904C69.0729 181.653 64.16 178.354 60.0266 174.197C55.8932 170.04 52.6209 165.106 50.3975 159.679C48.1741 154.252 47.0434 148.439 47.0704 142.573L47.0685 142.575ZM164.247 83.4587C164.247 88.4941 165.738 93.4164 168.532 97.6033C171.327 101.79 175.298 105.054 179.945 106.981C184.591 108.908 189.704 109.413 194.637 108.431C199.57 107.449 204.102 105.025 207.659 101.465C211.216 97.9044 213.638 93.3684 214.621 88.4299C215.603 83.4914 215.1 78.3723 213.176 73.7199C211.252 69.0674 207.994 65.0905 203.812 62.2921C199.631 59.4936 194.715 57.9992 189.685 57.9979C186.345 57.9969 183.037 58.6548 179.951 59.9338C176.864 61.2129 174.06 63.0882 171.698 65.4526C169.335 67.817 167.461 70.6241 166.183 73.7136C164.905 76.8031 164.247 80.1146 164.247 83.4587V83.4587Z" fill="white"/>
</g>
<mask id="path-2-outside-1_29_1175" maskUnits="userSpaceOnUse" x="19" y="213.58" width="216" height="33" fill="black">
<rect fill="white" x="19" y="213.58" width="216" height="33"/>
<path d="M20 217.963H25.9398V237.513H28.0722V217.963H33.9818V216.194H20V217.963ZM46.0741 237.513H48.2064V220.866H46.0741V237.513ZM47.1398 217.722C47.3466 217.723 47.5515 217.682 47.7424 217.603C47.9334 217.523 48.1064 217.406 48.2512 217.258C48.3961 217.11 48.51 216.935 48.586 216.742C48.662 216.55 48.6987 216.344 48.6939 216.137C48.6982 215.931 48.6609 215.727 48.5844 215.537C48.5078 215.346 48.3935 215.173 48.2485 215.028C48.1034 214.882 47.9305 214.768 47.7401 214.691C47.5497 214.615 47.3458 214.577 47.1407 214.582C46.9353 214.577 46.7312 214.614 46.5405 214.691C46.3498 214.767 46.1765 214.881 46.0311 215.027C45.8857 215.172 45.7712 215.345 45.6945 215.536C45.6178 215.727 45.5804 215.931 45.5847 216.137C45.5802 216.344 45.6173 216.549 45.6935 216.742C45.7698 216.934 45.8838 217.109 46.0287 217.256C46.1737 217.404 46.3466 217.521 46.5375 217.6C46.7283 217.68 46.9331 217.723 47.1398 217.722ZM86.0685 237.513H88.1706V227.752C88.1706 222.872 85.2418 220.555 81.5572 220.555C80.2505 220.496 78.9599 220.863 77.8784 221.599C76.7969 222.336 75.9825 223.403 75.5569 224.641C75.1125 223.384 74.272 222.306 73.1621 221.569C72.0522 220.832 70.7331 220.476 69.4035 220.555C68.2787 220.506 67.1632 220.778 66.187 221.34C65.2108 221.901 64.4141 222.729 63.8898 223.726V220.859H61.7612V237.513H63.8936V228.484C63.8936 224.428 65.9957 222.415 69.0417 222.415C71.996 222.415 73.946 224.307 73.946 227.996V237.513H76.0482V228.484C76.0482 224.428 78.1805 222.415 81.1963 222.415C84.1506 222.415 86.0704 224.307 86.0704 227.996L86.0685 237.513ZM108.696 222.446C111.772 222.446 114.574 224.397 114.484 228.27H102.791C103.035 224.397 105.685 222.446 108.696 222.446ZM116.407 232.234H114.153C113.544 234.461 111.625 235.955 108.79 235.955C108.001 235.981 107.214 235.845 106.479 235.555C105.744 235.266 105.075 234.83 104.513 234.274C103.952 233.717 103.51 233.052 103.214 232.319C102.918 231.585 102.774 230.799 102.791 230.009H116.59C116.642 229.451 116.662 228.891 116.65 228.332C116.683 227.296 116.501 226.266 116.116 225.304C115.731 224.343 115.15 223.472 114.412 222.747C113.673 222.022 112.792 221.458 111.824 221.091C110.857 220.724 109.824 220.563 108.79 220.616C104.008 220.616 100.628 223.88 100.628 229.186C100.628 234.462 104.069 237.755 108.79 237.755C112.965 237.754 115.646 235.376 116.407 232.234ZM129.261 237.513H131.393V214.944H129.261V237.513ZM150.98 235.074L145.311 220.863H142.965L149.794 237.419L146.565 245.348H148.789L158.658 220.86H156.465L150.98 235.074ZM179.826 215.948C173.856 215.948 169.287 220.461 169.287 226.834C169.287 233.239 173.856 237.721 179.826 237.721C182.514 237.756 185.109 236.729 187.047 234.864C188.985 232.998 190.112 230.443 190.182 227.752V226.197H178.973V227.935H187.928C187.593 232.784 184.303 235.803 179.826 235.803C175.102 235.803 171.48 232.357 171.48 226.837C171.48 221.317 175.105 217.902 179.826 217.902C181.34 217.838 182.837 218.236 184.121 219.041C185.405 219.847 186.415 221.023 187.018 222.415H189.516C188.794 220.448 187.467 218.761 185.725 217.599C183.983 216.436 181.917 215.858 179.826 215.948ZM202.796 237.513H204.929V220.866H202.796V237.513ZM203.862 217.722C204.069 217.723 204.274 217.682 204.464 217.602C204.655 217.522 204.828 217.405 204.973 217.257C205.118 217.109 205.232 216.934 205.308 216.741C205.383 216.549 205.42 216.343 205.415 216.136C205.419 215.93 205.382 215.726 205.306 215.536C205.229 215.345 205.115 215.172 204.97 215.027C204.825 214.881 204.652 214.767 204.461 214.69C204.271 214.614 204.067 214.576 203.862 214.581C203.656 214.576 203.452 214.613 203.261 214.689C203.07 214.766 202.897 214.88 202.751 215.026C202.606 215.171 202.491 215.344 202.414 215.535C202.338 215.726 202.3 215.931 202.305 216.137C202.3 216.343 202.337 216.549 202.414 216.741C202.49 216.934 202.604 217.109 202.749 217.256C202.893 217.404 203.066 217.52 203.257 217.6C203.448 217.68 203.655 217.723 203.862 217.722ZM217.508 229.157C217.508 234.372 220.89 237.757 225.459 237.757C226.818 237.811 228.163 237.468 229.33 236.769C230.498 236.071 231.437 235.048 232.034 233.824V237.937C232.034 241.72 229.567 243.822 226.399 243.822C223.353 243.822 221.251 242.267 220.55 240.01H218.448C219.118 243.486 222.104 245.686 226.399 245.686C227.431 245.743 228.465 245.583 229.431 245.214C230.398 244.846 231.276 244.277 232.008 243.546C232.741 242.815 233.311 241.938 233.683 240.971C234.054 240.005 234.217 238.971 234.163 237.937V220.86H232.031V224.489C231.427 223.274 230.484 222.261 229.316 221.573C228.148 220.885 226.805 220.552 225.451 220.615C220.886 220.616 217.508 223.943 217.508 229.157ZM232.038 229.188C232.038 233.335 229.266 235.897 225.854 235.897C222.351 235.897 219.671 233.366 219.671 229.157C219.671 224.919 222.351 222.479 225.854 222.479C229.262 222.474 232.038 225.036 232.038 229.188Z"/>
</mask>
<path d="M20 217.963H25.9398V237.513H28.0722V217.963H33.9818V216.194H20V217.963ZM46.0741 237.513H48.2064V220.866H46.0741V237.513ZM47.1398 217.722C47.3466 217.723 47.5515 217.682 47.7424 217.603C47.9334 217.523 48.1064 217.406 48.2512 217.258C48.3961 217.11 48.51 216.935 48.586 216.742C48.662 216.55 48.6987 216.344 48.6939 216.137C48.6982 215.931 48.6609 215.727 48.5844 215.537C48.5078 215.346 48.3935 215.173 48.2485 215.028C48.1034 214.882 47.9305 214.768 47.7401 214.691C47.5497 214.615 47.3458 214.577 47.1407 214.582C46.9353 214.577 46.7312 214.614 46.5405 214.691C46.3498 214.767 46.1765 214.881 46.0311 215.027C45.8857 215.172 45.7712 215.345 45.6945 215.536C45.6178 215.727 45.5804 215.931 45.5847 216.137C45.5802 216.344 45.6173 216.549 45.6935 216.742C45.7698 216.934 45.8838 217.109 46.0287 217.256C46.1737 217.404 46.3466 217.521 46.5375 217.6C46.7283 217.68 46.9331 217.723 47.1398 217.722ZM86.0685 237.513H88.1706V227.752C88.1706 222.872 85.2418 220.555 81.5572 220.555C80.2505 220.496 78.9599 220.863 77.8784 221.599C76.7969 222.336 75.9825 223.403 75.5569 224.641C75.1125 223.384 74.272 222.306 73.1621 221.569C72.0522 220.832 70.7331 220.476 69.4035 220.555C68.2787 220.506 67.1632 220.778 66.187 221.34C65.2108 221.901 64.4141 222.729 63.8898 223.726V220.859H61.7612V237.513H63.8936V228.484C63.8936 224.428 65.9957 222.415 69.0417 222.415C71.996 222.415 73.946 224.307 73.946 227.996V237.513H76.0482V228.484C76.0482 224.428 78.1805 222.415 81.1963 222.415C84.1506 222.415 86.0704 224.307 86.0704 227.996L86.0685 237.513ZM108.696 222.446C111.772 222.446 114.574 224.397 114.484 228.27H102.791C103.035 224.397 105.685 222.446 108.696 222.446ZM116.407 232.234H114.153C113.544 234.461 111.625 235.955 108.79 235.955C108.001 235.981 107.214 235.845 106.479 235.555C105.744 235.266 105.075 234.83 104.513 234.274C103.952 233.717 103.51 233.052 103.214 232.319C102.918 231.585 102.774 230.799 102.791 230.009H116.59C116.642 229.451 116.662 228.891 116.65 228.332C116.683 227.296 116.501 226.266 116.116 225.304C115.731 224.343 115.15 223.472 114.412 222.747C113.673 222.022 112.792 221.458 111.824 221.091C110.857 220.724 109.824 220.563 108.79 220.616C104.008 220.616 100.628 223.88 100.628 229.186C100.628 234.462 104.069 237.755 108.79 237.755C112.965 237.754 115.646 235.376 116.407 232.234ZM129.261 237.513H131.393V214.944H129.261V237.513ZM150.98 235.074L145.311 220.863H142.965L149.794 237.419L146.565 245.348H148.789L158.658 220.86H156.465L150.98 235.074ZM179.826 215.948C173.856 215.948 169.287 220.461 169.287 226.834C169.287 233.239 173.856 237.721 179.826 237.721C182.514 237.756 185.109 236.729 187.047 234.864C188.985 232.998 190.112 230.443 190.182 227.752V226.197H178.973V227.935H187.928C187.593 232.784 184.303 235.803 179.826 235.803C175.102 235.803 171.48 232.357 171.48 226.837C171.48 221.317 175.105 217.902 179.826 217.902C181.34 217.838 182.837 218.236 184.121 219.041C185.405 219.847 186.415 221.023 187.018 222.415H189.516C188.794 220.448 187.467 218.761 185.725 217.599C183.983 216.436 181.917 215.858 179.826 215.948ZM202.796 237.513H204.929V220.866H202.796V237.513ZM203.862 217.722C204.069 217.723 204.274 217.682 204.464 217.602C204.655 217.522 204.828 217.405 204.973 217.257C205.118 217.109 205.232 216.934 205.308 216.741C205.383 216.549 205.42 216.343 205.415 216.136C205.419 215.93 205.382 215.726 205.306 215.536C205.229 215.345 205.115 215.172 204.97 215.027C204.825 214.881 204.652 214.767 204.461 214.69C204.271 214.614 204.067 214.576 203.862 214.581C203.656 214.576 203.452 214.613 203.261 214.689C203.07 214.766 202.897 214.88 202.751 215.026C202.606 215.171 202.491 215.344 202.414 215.535C202.338 215.726 202.3 215.931 202.305 216.137C202.3 216.343 202.337 216.549 202.414 216.741C202.49 216.934 202.604 217.109 202.749 217.256C202.893 217.404 203.066 217.52 203.257 217.6C203.448 217.68 203.655 217.723 203.862 217.722ZM217.508 229.157C217.508 234.372 220.89 237.757 225.459 237.757C226.818 237.811 228.163 237.468 229.33 236.769C230.498 236.071 231.437 235.048 232.034 233.824V237.937C232.034 241.72 229.567 243.822 226.399 243.822C223.353 243.822 221.251 242.267 220.55 240.01H218.448C219.118 243.486 222.104 245.686 226.399 245.686C227.431 245.743 228.465 245.583 229.431 245.214C230.398 244.846 231.276 244.277 232.008 243.546C232.741 242.815 233.311 241.938 233.683 240.971C234.054 240.005 234.217 238.971 234.163 237.937V220.86H232.031V224.489C231.427 223.274 230.484 222.261 229.316 221.573C228.148 220.885 226.805 220.552 225.451 220.615C220.886 220.616 217.508 223.943 217.508 229.157ZM232.038 229.188C232.038 233.335 229.266 235.897 225.854 235.897C222.351 235.897 219.671 233.366 219.671 229.157C219.671 224.919 222.351 222.479 225.854 222.479C229.262 222.474 232.038 225.036 232.038 229.188Z" fill="#BD8BFC"/>
<path d="M20 217.963H25.9398V237.513H28.0722V217.963H33.9818V216.194H20V217.963ZM46.0741 237.513H48.2064V220.866H46.0741V237.513ZM47.1398 217.722C47.3466 217.723 47.5515 217.682 47.7424 217.603C47.9334 217.523 48.1064 217.406 48.2512 217.258C48.3961 217.11 48.51 216.935 48.586 216.742C48.662 216.55 48.6987 216.344 48.6939 216.137C48.6982 215.931 48.6609 215.727 48.5844 215.537C48.5078 215.346 48.3935 215.173 48.2485 215.028C48.1034 214.882 47.9305 214.768 47.7401 214.691C47.5497 214.615 47.3458 214.577 47.1407 214.582C46.9353 214.577 46.7312 214.614 46.5405 214.691C46.3498 214.767 46.1765 214.881 46.0311 215.027C45.8857 215.172 45.7712 215.345 45.6945 215.536C45.6178 215.727 45.5804 215.931 45.5847 216.137C45.5802 216.344 45.6173 216.549 45.6935 216.742C45.7698 216.934 45.8838 217.109 46.0287 217.256C46.1737 217.404 46.3466 217.521 46.5375 217.6C46.7283 217.68 46.9331 217.723 47.1398 217.722ZM86.0685 237.513H88.1706V227.752C88.1706 222.872 85.2418 220.555 81.5572 220.555C80.2505 220.496 78.9599 220.863 77.8784 221.599C76.7969 222.336 75.9825 223.403 75.5569 224.641C75.1125 223.384 74.272 222.306 73.1621 221.569C72.0522 220.832 70.7331 220.476 69.4035 220.555C68.2787 220.506 67.1632 220.778 66.187 221.34C65.2108 221.901 64.4141 222.729 63.8898 223.726V220.859H61.7612V237.513H63.8936V228.484C63.8936 224.428 65.9957 222.415 69.0417 222.415C71.996 222.415 73.946 224.307 73.946 227.996V237.513H76.0482V228.484C76.0482 224.428 78.1805 222.415 81.1963 222.415C84.1506 222.415 86.0704 224.307 86.0704 227.996L86.0685 237.513ZM108.696 222.446C111.772 222.446 114.574 224.397 114.484 228.27H102.791C103.035 224.397 105.685 222.446 108.696 222.446ZM116.407 232.234H114.153C113.544 234.461 111.625 235.955 108.79 235.955C108.001 235.981 107.214 235.845 106.479 235.555C105.744 235.266 105.075 234.83 104.513 234.274C103.952 233.717 103.51 233.052 103.214 232.319C102.918 231.585 102.774 230.799 102.791 230.009H116.59C116.642 229.451 116.662 228.891 116.65 228.332C116.683 227.296 116.501 226.266 116.116 225.304C115.731 224.343 115.15 223.472 114.412 222.747C113.673 222.022 112.792 221.458 111.824 221.091C110.857 220.724 109.824 220.563 108.79 220.616C104.008 220.616 100.628 223.88 100.628 229.186C100.628 234.462 104.069 237.755 108.79 237.755C112.965 237.754 115.646 235.376 116.407 232.234ZM129.261 237.513H131.393V214.944H129.261V237.513ZM150.98 235.074L145.311 220.863H142.965L149.794 237.419L146.565 245.348H148.789L158.658 220.86H156.465L150.98 235.074ZM179.826 215.948C173.856 215.948 169.287 220.461 169.287 226.834C169.287 233.239 173.856 237.721 179.826 237.721C182.514 237.756 185.109 236.729 187.047 234.864C188.985 232.998 190.112 230.443 190.182 227.752V226.197H178.973V227.935H187.928C187.593 232.784 184.303 235.803 179.826 235.803C175.102 235.803 171.48 232.357 171.48 226.837C171.48 221.317 175.105 217.902 179.826 217.902C181.34 217.838 182.837 218.236 184.121 219.041C185.405 219.847 186.415 221.023 187.018 222.415H189.516C188.794 220.448 187.467 218.761 185.725 217.599C183.983 216.436 181.917 215.858 179.826 215.948ZM202.796 237.513H204.929V220.866H202.796V237.513ZM203.862 217.722C204.069 217.723 204.274 217.682 204.464 217.602C204.655 217.522 204.828 217.405 204.973 217.257C205.118 217.109 205.232 216.934 205.308 216.741C205.383 216.549 205.42 216.343 205.415 216.136C205.419 215.93 205.382 215.726 205.306 215.536C205.229 215.345 205.115 215.172 204.97 215.027C204.825 214.881 204.652 214.767 204.461 214.69C204.271 214.614 204.067 214.576 203.862 214.581C203.656 214.576 203.452 214.613 203.261 214.689C203.07 214.766 202.897 214.88 202.751 215.026C202.606 215.171 202.491 215.344 202.414 215.535C202.338 215.726 202.3 215.931 202.305 216.137C202.3 216.343 202.337 216.549 202.414 216.741C202.49 216.934 202.604 217.109 202.749 217.256C202.893 217.404 203.066 217.52 203.257 217.6C203.448 217.68 203.655 217.723 203.862 217.722ZM217.508 229.157C217.508 234.372 220.89 237.757 225.459 237.757C226.818 237.811 228.163 237.468 229.33 236.769C230.498 236.071 231.437 235.048 232.034 233.824V237.937C232.034 241.72 229.567 243.822 226.399 243.822C223.353 243.822 221.251 242.267 220.55 240.01H218.448C219.118 243.486 222.104 245.686 226.399 245.686C227.431 245.743 228.465 245.583 229.431 245.214C230.398 244.846 231.276 244.277 232.008 243.546C232.741 242.815 233.311 241.938 233.683 240.971C234.054 240.005 234.217 238.971 234.163 237.937V220.86H232.031V224.489C231.427 223.274 230.484 222.261 229.316 221.573C228.148 220.885 226.805 220.552 225.451 220.615C220.886 220.616 217.508 223.943 217.508 229.157ZM232.038 229.188C232.038 233.335 229.266 235.897 225.854 235.897C222.351 235.897 219.671 233.366 219.671 229.157C219.671 224.919 222.351 222.479 225.854 222.479C229.262 222.474 232.038 225.036 232.038 229.188Z" stroke="#BD8BFC" stroke-width="0.2" mask="url(#path-2-outside-1_29_1175)"/>
<defs>
<filter id="filter0_d_29_1175" x="0.00244141" y="0" width="254.275" height="217.314" filterUnits="userSpaceOnUse" color-interpolation-filters="sRGB">
<feFlood flood-opacity="0" result="BackgroundImageFix"/>
<feColorMatrix in="SourceAlpha" type="matrix" values="0 0 0 0 0 0 0 0 0 0 0 0 0 0 0 0 0 0 127 0" result="hardAlpha"/>
<feOffset dy="10"/>
<feGaussianBlur stdDeviation="10"/>
<feColorMatrix type="matrix" values="0 0 0 0 0 0 0 0 0 0 0 0 0 0 0 0 0 0 0.102 0"/>
<feBlend mode="normal" in2="BackgroundImageFix" result="effect1_dropShadow_29_1175"/>
<feBlend mode="normal" in="SourceGraphic" in2="effect1_dropShadow_29_1175" result="shape"/>
</filter>
</defs>
</svg>
