<svg width="15" height="15" viewBox="0 0 15 15" fill="none" xmlns="http://www.w3.org/2000/svg">
<path d="M3.39237 14.875H0.308469V4.94381H3.39237V14.875ZM1.84856 3.58912C0.862563 3.58912 0.0625 2.77206 0.0625 1.78606C0.0625 1.31237 0.250674 0.858077 0.585626 0.523126C0.920577 0.188174 1.37487 0 1.84856 0C2.32226 0 2.77655 0.188174 3.1115 0.523126C3.44645 0.858077 3.63462 1.31237 3.63462 1.78606C3.63462 2.77206 2.83456 3.58912 1.84856 3.58912ZM14.9343 14.875H11.8573V10.0406C11.8573 8.88834 11.8339 7.41094 10.254 7.41094C8.65069 7.41094 8.40472 8.66256 8.40472 9.95775V14.875H5.324V4.94381H8.28147V6.2985H8.3245C8.73622 5.51809 9.74188 4.69466 11.2421 4.69466C14.3632 4.69466 14.937 6.75006 14.937 9.41959V14.875H14.9343Z" fill="white"/>
</svg>
