<svg width="69" height="74" viewBox="0 0 69 74" fill="none" xmlns="http://www.w3.org/2000/svg">
<path d="M62.0063 55.3788C62.0063 53.2675 61.1686 51.2426 59.6773 49.7496C58.1861 48.2567 56.1635 47.4179 54.0546 47.4179C51.9456 47.4179 49.9231 48.2567 48.4318 49.7496C46.9406 51.2426 46.1028 53.2675 46.1028 55.3788H40.1452C40.1368 53.5448 40.4903 51.7271 41.1855 50.0302C41.8808 48.3333 42.9039 46.7907 44.1964 45.4908C45.4888 44.1909 47.0249 43.1595 48.7167 42.4556C50.4084 41.7518 52.2223 41.3895 54.0543 41.3895C55.8863 41.3895 57.7002 41.7518 59.3919 42.4556C61.0836 43.1595 62.6198 44.1909 63.9122 45.4908C65.2046 46.7907 66.2278 48.3333 66.923 50.0302C67.6182 51.7271 67.9718 53.5448 67.9633 55.3788H62.0063ZM9.46373 41.4534V15.0079H1.00076V9.04289H9.46373V0H15.4213V9.04348H34.1877H54.0568C57.1744 9.03997 60.2031 10.0838 62.6579 12.0078C65.1128 13.9319 66.8518 16.6248 67.5966 19.6557C68.3415 22.6865 68.0491 25.8799 66.7662 28.7246C65.4833 31.5693 63.2841 33.9008 60.5208 35.3459C57.7574 36.791 54.5897 37.2661 51.5247 36.6952C48.4596 36.1242 45.6746 34.5402 43.6154 32.1967C41.5562 29.8532 40.3419 26.8858 40.1669 23.7695C39.992 20.6532 40.8664 17.5682 42.6503 15.0085H15.4234V41.4528C15.4234 43.5641 16.2611 45.589 17.7524 47.082C19.2436 48.5749 21.2662 49.4137 23.3751 49.4137C25.4841 49.4137 27.5066 48.5749 28.9979 47.082C30.4891 45.589 31.3269 43.5641 31.3269 41.4528H37.2824C37.2908 43.2868 36.9373 45.1045 36.2421 46.8014C35.5469 48.4983 34.5237 50.0409 33.2313 51.3408C31.9389 52.6407 30.4027 53.6722 28.711 54.376C27.0193 55.0798 25.2053 55.4421 23.3734 55.4421C21.5414 55.4421 19.7275 55.0798 18.0357 54.376C16.344 53.6722 14.8079 52.6407 13.5154 51.3408C12.223 50.0409 11.1998 48.4983 10.5046 46.8014C9.80942 45.1045 9.45588 43.2868 9.46432 41.4528L9.46373 41.4534ZM46.1028 22.9689C46.1028 24.5434 46.5691 26.0825 47.4428 27.3916C48.3165 28.7008 49.5583 29.7212 51.0112 30.3238C52.4641 30.9264 54.0628 31.0842 55.6053 30.7771C57.1478 30.4701 58.5647 29.7121 59.6768 28.599C60.789 27.4858 61.5465 26.0675 61.8536 24.5233C62.1606 22.9792 62.0035 21.3785 61.4019 19.9238C60.8004 18.4691 59.7815 17.2256 58.4741 16.3506C57.1667 15.4756 55.6294 15.0083 54.0568 15.0079C53.0123 15.0076 51.9781 15.2133 51.013 15.6132C50.048 16.0132 49.1712 16.5995 48.4325 17.3388C47.6939 18.0781 47.108 18.9558 46.7082 19.9218C46.3085 20.8879 46.1028 21.9233 46.1028 22.9689Z" fill="white"/>
<mask id="path-2-outside-1_2_43" maskUnits="userSpaceOnUse" x="0" y="62.9679" width="69" height="11" fill="black">
<rect fill="white" y="62.9679" width="69" height="11"/>
<path d="M1 65.0256H2.85726V71.1385H3.524V65.0256H5.37181V64.4726H1V65.0256ZM9.15279 71.1385H9.81953V65.9333H9.15279V71.1385ZM9.48601 64.9502C9.55068 64.9505 9.61476 64.9378 9.67445 64.9129C9.73415 64.888 9.78824 64.8513 9.83355 64.8051C9.87885 64.7589 9.91444 64.7041 9.93822 64.6439C9.96199 64.5836 9.97347 64.5193 9.97196 64.4545C9.97329 64.3903 9.96164 64.3265 9.9377 64.2669C9.91376 64.2073 9.87804 64.1532 9.83268 64.1078C9.78731 64.0624 9.73324 64.0266 9.67372 64.0026C9.6142 63.9787 9.55045 63.967 9.48631 63.9683C9.42209 63.9669 9.35825 63.9784 9.29862 64.0024C9.23899 64.0263 9.18482 64.062 9.13936 64.1074C9.0939 64.1529 9.05809 64.207 9.0341 64.2667C9.01011 64.3263 8.99843 64.3902 8.99976 64.4545C8.99838 64.5192 9.00995 64.5835 9.0338 64.6437C9.05765 64.7038 9.09328 64.7585 9.13861 64.8046C9.18393 64.8508 9.23802 64.8873 9.29769 64.9122C9.35735 64.937 9.42139 64.9505 9.48601 64.9502ZM21.6582 71.1385H22.3155V68.0864C22.3155 66.5606 21.3997 65.836 20.2476 65.836C19.839 65.8177 19.4355 65.9322 19.0973 66.1625C18.7591 66.3928 18.5045 66.7265 18.3714 67.1136C18.2325 66.7206 17.9697 66.3834 17.6226 66.153C17.2756 65.9225 16.8631 65.8113 16.4474 65.836C16.0957 65.8207 15.7469 65.9058 15.4417 66.0814C15.1364 66.257 14.8873 66.5158 14.7234 66.8276V65.9312H14.0578V71.1385H14.7246V68.3153C14.7246 67.0471 15.3818 66.4177 16.3343 66.4177C17.258 66.4177 17.8677 67.0092 17.8677 68.1627V71.1385H18.525V68.3153C18.525 67.0471 19.1918 66.4177 20.1347 66.4177C21.0585 66.4177 21.6588 67.0092 21.6588 68.1627L21.6582 71.1385ZM28.7333 66.4272C29.6952 66.4272 30.5714 67.0373 30.543 68.2484H26.887C26.9632 67.0373 27.7918 66.4272 28.7333 66.4272ZM31.1445 69.4879H30.4396C30.2491 70.1841 29.6491 70.6514 28.7628 70.6514C28.5159 70.6593 28.27 70.6168 28.0401 70.5263C27.8102 70.4359 27.6011 70.2996 27.4255 70.1256C27.25 69.9516 27.1117 69.7436 27.0191 69.5143C26.9265 69.285 26.8815 69.0393 26.887 68.792H31.2015C31.2178 68.6177 31.2241 68.4427 31.2204 68.2677C31.2307 67.9439 31.1739 67.6216 31.0534 67.321C30.9329 67.0205 30.7515 66.7482 30.5205 66.5214C30.2895 66.2947 30.014 66.1184 29.7115 66.0037C29.4089 65.889 29.0859 65.8385 28.7628 65.8552C27.2675 65.8552 26.2105 66.8756 26.2105 68.5347C26.2105 70.1844 27.2867 71.2142 28.7628 71.2142C30.068 71.2139 30.9063 70.4701 31.1445 69.4879ZM35.1635 71.1385H35.8303V64.0816H35.1635V71.1385ZM41.9545 70.3758L40.182 65.9324H39.4485L41.5837 71.1089L40.574 73.5882H41.2694L44.3553 65.9315H43.6696L41.9545 70.3758ZM50.974 64.3954C49.1073 64.3954 47.6787 65.8067 47.6787 67.7995C47.6787 69.802 49.1073 71.2036 50.974 71.2036C51.8147 71.2144 52.6258 70.8934 53.2319 70.31C53.838 69.7267 54.1902 68.9278 54.2123 68.0864V67.6001H50.7072V68.1437H53.5075C53.4026 69.6598 52.374 70.6038 50.974 70.6038C49.4969 70.6038 48.3643 69.5264 48.3643 67.8004C48.3643 66.0744 49.4978 65.0064 50.974 65.0064C51.4474 64.9866 51.9157 65.1109 52.3172 65.3628C52.7186 65.6147 53.0344 65.9825 53.223 66.4177H54.004C53.7783 65.8026 53.3632 65.2752 52.8186 64.9117C52.2739 64.5482 51.628 64.3674 50.974 64.3954ZM58.1564 71.1385H58.8231V65.9333H58.1564V71.1385ZM58.4896 64.9502C58.5543 64.9505 58.6183 64.9377 58.678 64.9128C58.7377 64.8878 58.7918 64.8511 58.837 64.8049C58.8823 64.7587 58.9179 64.7038 58.9416 64.6436C58.9653 64.5834 58.9768 64.519 58.9752 64.4542C58.9766 64.39 58.9649 64.3262 58.941 64.2666C58.917 64.207 58.8813 64.1529 58.8359 64.1075C58.7906 64.0621 58.7365 64.0263 58.677 64.0023C58.6175 63.9784 58.5537 63.9667 58.4896 63.968C58.4253 63.9665 58.3614 63.9781 58.3017 64.002C58.242 64.0259 58.1878 64.0617 58.1423 64.1071C58.0968 64.1526 58.061 64.2068 58.037 64.2665C58.013 64.3262 58.0014 64.3902 58.0027 64.4545C58.0014 64.5192 58.0129 64.5835 58.0367 64.6436C58.0606 64.7037 58.0962 64.7584 58.1415 64.8045C58.1868 64.8507 58.2408 64.8872 58.3005 64.9121C58.3601 64.937 58.425 64.9505 58.4896 64.9502ZM62.7565 68.5258C62.7565 70.1563 63.8138 71.2148 65.2424 71.2148C65.6673 71.2316 66.0879 71.1242 66.453 70.9059C66.8181 70.6876 67.1118 70.3676 67.2985 69.9851V71.271C67.2985 72.454 66.5272 73.1112 65.5363 73.1112C64.5839 73.1112 63.9266 72.625 63.7077 71.9193H63.0504C63.2599 73.0062 64.1934 73.6938 65.5363 73.6938C65.8592 73.7119 66.1823 73.6617 66.4845 73.5465C66.7868 73.4312 67.0613 73.2535 67.2904 73.0249C67.5194 72.7964 67.6978 72.522 67.8139 72.2198C67.9299 71.9176 67.9811 71.5943 67.964 71.271V65.9315H67.2973V67.066C67.1087 66.6861 66.8138 66.3694 66.4485 66.1543C66.0832 65.9393 65.6633 65.8352 65.24 65.8549C63.8126 65.8552 62.7565 66.8954 62.7565 68.5258ZM67.2997 68.5353C67.2997 69.8322 66.4329 70.6331 65.3662 70.6331C64.2708 70.6331 63.4327 69.8416 63.4327 68.5258C63.4327 67.2006 64.2708 66.4375 65.3662 66.4375C66.4317 66.4361 67.2997 67.2373 67.2997 68.5353Z"/>
</mask>
<path d="M1 65.0256H2.85726V71.1385H3.524V65.0256H5.37181V64.4726H1V65.0256ZM9.15279 71.1385H9.81953V65.9333H9.15279V71.1385ZM9.48601 64.9502C9.55068 64.9505 9.61476 64.9378 9.67445 64.9129C9.73415 64.888 9.78824 64.8513 9.83355 64.8051C9.87885 64.7589 9.91444 64.7041 9.93822 64.6439C9.96199 64.5836 9.97347 64.5193 9.97196 64.4545C9.97329 64.3903 9.96164 64.3265 9.9377 64.2669C9.91376 64.2073 9.87804 64.1532 9.83268 64.1078C9.78731 64.0624 9.73324 64.0266 9.67372 64.0026C9.6142 63.9787 9.55045 63.967 9.48631 63.9683C9.42209 63.9669 9.35825 63.9784 9.29862 64.0024C9.23899 64.0263 9.18482 64.062 9.13936 64.1074C9.0939 64.1529 9.05809 64.207 9.0341 64.2667C9.01011 64.3263 8.99843 64.3902 8.99976 64.4545C8.99838 64.5192 9.00995 64.5835 9.0338 64.6437C9.05765 64.7038 9.09328 64.7585 9.13861 64.8046C9.18393 64.8508 9.23802 64.8873 9.29769 64.9122C9.35735 64.937 9.42139 64.9505 9.48601 64.9502ZM21.6582 71.1385H22.3155V68.0864C22.3155 66.5606 21.3997 65.836 20.2476 65.836C19.839 65.8177 19.4355 65.9322 19.0973 66.1625C18.7591 66.3928 18.5045 66.7265 18.3714 67.1136C18.2325 66.7206 17.9697 66.3834 17.6226 66.153C17.2756 65.9225 16.8631 65.8113 16.4474 65.836C16.0957 65.8207 15.7469 65.9058 15.4417 66.0814C15.1364 66.257 14.8873 66.5158 14.7234 66.8276V65.9312H14.0578V71.1385H14.7246V68.3153C14.7246 67.0471 15.3818 66.4177 16.3343 66.4177C17.258 66.4177 17.8677 67.0092 17.8677 68.1627V71.1385H18.525V68.3153C18.525 67.0471 19.1918 66.4177 20.1347 66.4177C21.0585 66.4177 21.6588 67.0092 21.6588 68.1627L21.6582 71.1385ZM28.7333 66.4272C29.6952 66.4272 30.5714 67.0373 30.543 68.2484H26.887C26.9632 67.0373 27.7918 66.4272 28.7333 66.4272ZM31.1445 69.4879H30.4396C30.2491 70.1841 29.6491 70.6514 28.7628 70.6514C28.5159 70.6593 28.27 70.6168 28.0401 70.5263C27.8102 70.4359 27.6011 70.2996 27.4255 70.1256C27.25 69.9516 27.1117 69.7436 27.0191 69.5143C26.9265 69.285 26.8815 69.0393 26.887 68.792H31.2015C31.2178 68.6177 31.2241 68.4427 31.2204 68.2677C31.2307 67.9439 31.1739 67.6216 31.0534 67.321C30.9329 67.0205 30.7515 66.7482 30.5205 66.5214C30.2895 66.2947 30.014 66.1184 29.7115 66.0037C29.4089 65.889 29.0859 65.8385 28.7628 65.8552C27.2675 65.8552 26.2105 66.8756 26.2105 68.5347C26.2105 70.1844 27.2867 71.2142 28.7628 71.2142C30.068 71.2139 30.9063 70.4701 31.1445 69.4879ZM35.1635 71.1385H35.8303V64.0816H35.1635V71.1385ZM41.9545 70.3758L40.182 65.9324H39.4485L41.5837 71.1089L40.574 73.5882H41.2694L44.3553 65.9315H43.6696L41.9545 70.3758ZM50.974 64.3954C49.1073 64.3954 47.6787 65.8067 47.6787 67.7995C47.6787 69.802 49.1073 71.2036 50.974 71.2036C51.8147 71.2144 52.6258 70.8934 53.2319 70.31C53.838 69.7267 54.1902 68.9278 54.2123 68.0864V67.6001H50.7072V68.1437H53.5075C53.4026 69.6598 52.374 70.6038 50.974 70.6038C49.4969 70.6038 48.3643 69.5264 48.3643 67.8004C48.3643 66.0744 49.4978 65.0064 50.974 65.0064C51.4474 64.9866 51.9157 65.1109 52.3172 65.3628C52.7186 65.6147 53.0344 65.9825 53.223 66.4177H54.004C53.7783 65.8026 53.3632 65.2752 52.8186 64.9117C52.2739 64.5482 51.628 64.3674 50.974 64.3954ZM58.1564 71.1385H58.8231V65.9333H58.1564V71.1385ZM58.4896 64.9502C58.5543 64.9505 58.6183 64.9377 58.678 64.9128C58.7377 64.8878 58.7918 64.8511 58.837 64.8049C58.8823 64.7587 58.9179 64.7038 58.9416 64.6436C58.9653 64.5834 58.9768 64.519 58.9752 64.4542C58.9766 64.39 58.9649 64.3262 58.941 64.2666C58.917 64.207 58.8813 64.1529 58.8359 64.1075C58.7906 64.0621 58.7365 64.0263 58.677 64.0023C58.6175 63.9784 58.5537 63.9667 58.4896 63.968C58.4253 63.9665 58.3614 63.9781 58.3017 64.002C58.242 64.0259 58.1878 64.0617 58.1423 64.1071C58.0968 64.1526 58.061 64.2068 58.037 64.2665C58.013 64.3262 58.0014 64.3902 58.0027 64.4545C58.0014 64.5192 58.0129 64.5835 58.0367 64.6436C58.0606 64.7037 58.0962 64.7584 58.1415 64.8045C58.1868 64.8507 58.2408 64.8872 58.3005 64.9121C58.3601 64.937 58.425 64.9505 58.4896 64.9502ZM62.7565 68.5258C62.7565 70.1563 63.8138 71.2148 65.2424 71.2148C65.6673 71.2316 66.0879 71.1242 66.453 70.9059C66.8181 70.6876 67.1118 70.3676 67.2985 69.9851V71.271C67.2985 72.454 66.5272 73.1112 65.5363 73.1112C64.5839 73.1112 63.9266 72.625 63.7077 71.9193H63.0504C63.2599 73.0062 64.1934 73.6938 65.5363 73.6938C65.8592 73.7119 66.1823 73.6617 66.4845 73.5465C66.7868 73.4312 67.0613 73.2535 67.2904 73.0249C67.5194 72.7964 67.6978 72.522 67.8139 72.2198C67.9299 71.9176 67.9811 71.5943 67.964 71.271V65.9315H67.2973V67.066C67.1087 66.6861 66.8138 66.3694 66.4485 66.1543C66.0832 65.9393 65.6633 65.8352 65.24 65.8549C63.8126 65.8552 62.7565 66.8954 62.7565 68.5258ZM67.2997 68.5353C67.2997 69.8322 66.4329 70.6331 65.3662 70.6331C64.2708 70.6331 63.4327 69.8416 63.4327 68.5258C63.4327 67.2006 64.2708 66.4375 65.3662 66.4375C66.4317 66.4361 67.2997 67.2373 67.2997 68.5353Z" fill="#BD8BFC"/>
<path d="M1 65.0256H2.85726V71.1385H3.524V65.0256H5.37181V64.4726H1V65.0256ZM9.15279 71.1385H9.81953V65.9333H9.15279V71.1385ZM9.48601 64.9502C9.55068 64.9505 9.61476 64.9378 9.67445 64.9129C9.73415 64.888 9.78824 64.8513 9.83355 64.8051C9.87885 64.7589 9.91444 64.7041 9.93822 64.6439C9.96199 64.5836 9.97347 64.5193 9.97196 64.4545C9.97329 64.3903 9.96164 64.3265 9.9377 64.2669C9.91376 64.2073 9.87804 64.1532 9.83268 64.1078C9.78731 64.0624 9.73324 64.0266 9.67372 64.0026C9.6142 63.9787 9.55045 63.967 9.48631 63.9683C9.42209 63.9669 9.35825 63.9784 9.29862 64.0024C9.23899 64.0263 9.18482 64.062 9.13936 64.1074C9.0939 64.1529 9.05809 64.207 9.0341 64.2667C9.01011 64.3263 8.99843 64.3902 8.99976 64.4545C8.99838 64.5192 9.00995 64.5835 9.0338 64.6437C9.05765 64.7038 9.09328 64.7585 9.13861 64.8046C9.18393 64.8508 9.23802 64.8873 9.29769 64.9122C9.35735 64.937 9.42139 64.9505 9.48601 64.9502ZM21.6582 71.1385H22.3155V68.0864C22.3155 66.5606 21.3997 65.836 20.2476 65.836C19.839 65.8177 19.4355 65.9322 19.0973 66.1625C18.7591 66.3928 18.5045 66.7265 18.3714 67.1136C18.2325 66.7206 17.9697 66.3834 17.6226 66.153C17.2756 65.9225 16.8631 65.8113 16.4474 65.836C16.0957 65.8207 15.7469 65.9058 15.4417 66.0814C15.1364 66.257 14.8873 66.5158 14.7234 66.8276V65.9312H14.0578V71.1385H14.7246V68.3153C14.7246 67.0471 15.3818 66.4177 16.3343 66.4177C17.258 66.4177 17.8677 67.0092 17.8677 68.1627V71.1385H18.525V68.3153C18.525 67.0471 19.1918 66.4177 20.1347 66.4177C21.0585 66.4177 21.6588 67.0092 21.6588 68.1627L21.6582 71.1385ZM28.7333 66.4272C29.6952 66.4272 30.5714 67.0373 30.543 68.2484H26.887C26.9632 67.0373 27.7918 66.4272 28.7333 66.4272ZM31.1445 69.4879H30.4396C30.2491 70.1841 29.6491 70.6514 28.7628 70.6514C28.5159 70.6593 28.27 70.6168 28.0401 70.5263C27.8102 70.4359 27.6011 70.2996 27.4255 70.1256C27.25 69.9516 27.1117 69.7436 27.0191 69.5143C26.9265 69.285 26.8815 69.0393 26.887 68.792H31.2015C31.2178 68.6177 31.2241 68.4427 31.2204 68.2677C31.2307 67.9439 31.1739 67.6216 31.0534 67.321C30.9329 67.0205 30.7515 66.7482 30.5205 66.5214C30.2895 66.2947 30.014 66.1184 29.7115 66.0037C29.4089 65.889 29.0859 65.8385 28.7628 65.8552C27.2675 65.8552 26.2105 66.8756 26.2105 68.5347C26.2105 70.1844 27.2867 71.2142 28.7628 71.2142C30.068 71.2139 30.9063 70.4701 31.1445 69.4879ZM35.1635 71.1385H35.8303V64.0816H35.1635V71.1385ZM41.9545 70.3758L40.182 65.9324H39.4485L41.5837 71.1089L40.574 73.5882H41.2694L44.3553 65.9315H43.6696L41.9545 70.3758ZM50.974 64.3954C49.1073 64.3954 47.6787 65.8067 47.6787 67.7995C47.6787 69.802 49.1073 71.2036 50.974 71.2036C51.8147 71.2144 52.6258 70.8934 53.2319 70.31C53.838 69.7267 54.1902 68.9278 54.2123 68.0864V67.6001H50.7072V68.1437H53.5075C53.4026 69.6598 52.374 70.6038 50.974 70.6038C49.4969 70.6038 48.3643 69.5264 48.3643 67.8004C48.3643 66.0744 49.4978 65.0064 50.974 65.0064C51.4474 64.9866 51.9157 65.1109 52.3172 65.3628C52.7186 65.6147 53.0344 65.9825 53.223 66.4177H54.004C53.7783 65.8026 53.3632 65.2752 52.8186 64.9117C52.2739 64.5482 51.628 64.3674 50.974 64.3954ZM58.1564 71.1385H58.8231V65.9333H58.1564V71.1385ZM58.4896 64.9502C58.5543 64.9505 58.6183 64.9377 58.678 64.9128C58.7377 64.8878 58.7918 64.8511 58.837 64.8049C58.8823 64.7587 58.9179 64.7038 58.9416 64.6436C58.9653 64.5834 58.9768 64.519 58.9752 64.4542C58.9766 64.39 58.9649 64.3262 58.941 64.2666C58.917 64.207 58.8813 64.1529 58.8359 64.1075C58.7906 64.0621 58.7365 64.0263 58.677 64.0023C58.6175 63.9784 58.5537 63.9667 58.4896 63.968C58.4253 63.9665 58.3614 63.9781 58.3017 64.002C58.242 64.0259 58.1878 64.0617 58.1423 64.1071C58.0968 64.1526 58.061 64.2068 58.037 64.2665C58.013 64.3262 58.0014 64.3902 58.0027 64.4545C58.0014 64.5192 58.0129 64.5835 58.0367 64.6436C58.0606 64.7037 58.0962 64.7584 58.1415 64.8045C58.1868 64.8507 58.2408 64.8872 58.3005 64.9121C58.3601 64.937 58.425 64.9505 58.4896 64.9502ZM62.7565 68.5258C62.7565 70.1563 63.8138 71.2148 65.2424 71.2148C65.6673 71.2316 66.0879 71.1242 66.453 70.9059C66.8181 70.6876 67.1118 70.3676 67.2985 69.9851V71.271C67.2985 72.454 66.5272 73.1112 65.5363 73.1112C64.5839 73.1112 63.9266 72.625 63.7077 71.9193H63.0504C63.2599 73.0062 64.1934 73.6938 65.5363 73.6938C65.8592 73.7119 66.1823 73.6617 66.4845 73.5465C66.7868 73.4312 67.0613 73.2535 67.2904 73.0249C67.5194 72.7964 67.6978 72.522 67.8139 72.2198C67.9299 71.9176 67.9811 71.5943 67.964 71.271V65.9315H67.2973V67.066C67.1087 66.6861 66.8138 66.3694 66.4485 66.1543C66.0832 65.9393 65.6633 65.8352 65.24 65.8549C63.8126 65.8552 62.7565 66.8954 62.7565 68.5258ZM67.2997 68.5353C67.2997 69.8322 66.4329 70.6331 65.3662 70.6331C64.2708 70.6331 63.4327 69.8416 63.4327 68.5258C63.4327 67.2006 64.2708 66.4375 65.3662 66.4375C66.4317 66.4361 67.2997 67.2373 67.2997 68.5353Z" stroke="#BD8BFC" stroke-width="0.2" mask="url(#path-2-outside-1_2_43)"/>
</svg>
