<svg width="33" height="36" viewBox="0 0 33 36" fill="none" xmlns="http://www.w3.org/2000/svg">
<path d="M17.9974 17.2174L23.941 11.2988L4.74357 0.5545C3.47125 -0.130031 2.27933 -0.226105 1.23413 0.522475L17.9974 17.2174ZM24.954 24.1468L31.1327 20.6861C32.3387 20.0136 33 19.0609 33 18.004C33 16.9492 32.3387 15.9945 31.1347 15.322L25.5409 12.1935L19.2436 18.4624L24.954 24.1468ZM0.200999 1.9776C0.0723594 2.37191 0 2.81225 0 3.29463V32.7275C0 33.4901 0.168839 34.1466 0.474358 34.669L16.7492 18.4604L0.200999 1.9776ZM17.9974 19.7014L1.81301 35.8199C2.12255 35.938 2.45621 36 2.80795 36C3.43507 36 4.08832 35.8159 4.75362 35.4476L23.3561 25.0455L17.9974 19.7014Z" fill="white"/>
</svg>
