<svg width="32" height="36" viewBox="0 0 32 36" fill="none" xmlns="http://www.w3.org/2000/svg">
<path d="M28.4444 0H3.55556C2.61256 0 1.70819 0.379284 1.0414 1.05442C0.374602 1.72955 0 2.64522 0 3.6V27C0 27.9548 0.374602 28.8705 1.0414 29.5456C1.70819 30.2207 2.61256 30.6 3.55556 30.6H10.6667L16 36L21.3333 30.6H28.4444C29.3874 30.6 30.2918 30.2207 30.9586 29.5456C31.6254 28.8705 32 27.9548 32 27V3.6C32 2.64522 31.6254 1.72955 30.9586 1.05442C30.2918 0.379284 29.3874 0 28.4444 0ZM16 5.4C19.0702 5.4 21.3333 7.6896 21.3333 10.8C21.3333 13.9104 19.0702 16.2 16 16.2C12.9316 16.2 10.6667 13.9104 10.6667 10.8C10.6667 7.6896 12.9316 5.4 16 5.4ZM7.42578 25.2C8.41778 22.0986 11.8631 19.8 16 19.8C20.1369 19.8 23.584 22.0986 24.5742 25.2H7.42578Z" fill="url(#paint0_linear_18_130)"/>
<defs>
<linearGradient id="paint0_linear_18_130" x1="16" y1="0" x2="16" y2="36" gradientUnits="userSpaceOnUse">
<stop stop-color="#EA14FA"/>
<stop offset="1" stop-color="#2519F9"/>
<stop offset="1" stop-color="#2519F9"/>
</linearGradient>
</defs>
</svg>
