<svg width="38" height="34" viewBox="0 0 38 34" fill="none" xmlns="http://www.w3.org/2000/svg">
<path d="M0.0722656 33.6504V25.3789C0.0722656 22.599 0.482422 19.7051 1.30273 16.6973C2.16862 13.6439 3.39909 10.7272 4.99414 7.94727C6.63477 5.12174 8.5944 2.68359 10.873 0.632812L17.6406 5.62305C15.8177 8.63086 14.4277 11.7298 13.4707 14.9199C12.5137 18.0645 12.0352 21.4824 12.0352 25.1738V33.6504H0.0722656ZM19.5547 33.6504V25.3789C19.5547 22.599 19.9648 19.7051 20.7852 16.6973C21.651 13.6439 22.8815 10.7272 24.4766 7.94727C26.1172 5.12174 28.0768 2.68359 30.3555 0.632812L37.123 5.62305C35.3001 8.63086 33.9102 11.7298 32.9531 14.9199C31.9961 18.0645 31.5176 21.4824 31.5176 25.1738V33.6504H19.5547Z" fill="#313131"/>
</svg>
