<svg width="15" height="12" viewBox="0 0 15 12" fill="none" xmlns="http://www.w3.org/2000/svg">
<path d="M14.6 1.3998C14.05 1.6498 13.5 1.7998 12.85 1.8998C13.45 1.4998 13.95 0.949804 14.2 0.249804C13.6 0.599805 12.95 0.849805 12.3 0.999804C11.75 0.399804 10.95 0.0498047 10.1 0.0498047C8.45 0.0498047 7.05 1.3998 7.05 3.0998C7.05 3.3498 7.1 3.5498 7.15 3.7998C4.65 3.6998 2.4 2.4498 0.9 0.649805C0.65 0.999805 0.5 1.4998 0.5 2.0498C0.5 3.0998 1.05 4.0498 1.85 4.5498C1.35 4.5498 0.9 4.3998 0.5 4.1498V4.1998C0.5 5.6498 1.55 6.8998 2.95 7.1498C2.7 7.1998 2.45 7.2498 2.15 7.2498C1.95 7.2498 1.75 7.2498 1.6 7.1998C2 8.3998 3.1 9.2998 4.45 9.2998C3.4 10.0998 2.1 10.5998 0.7 10.5998C0.45 10.5998 0.2 10.5998 0 10.5498C1.2 11.4998 2.8 11.9998 4.5 11.9998C10.05 11.9998 13.1 7.3998 13.1 3.3998V2.9998C13.7 2.5498 14.2 2.0498 14.6 1.3998Z" fill="white"/>
</svg>
