<svg width="46" height="42" viewBox="0 0 46 42" fill="none" xmlns="http://www.w3.org/2000/svg">
<path d="M42.0834 7H33.3334V5.25C33.3276 3.85939 32.7726 2.52737 31.7893 1.54405C30.806 0.560731 29.474 0.00575831 28.0834 0H17.5834C16.1928 0.00575831 14.8607 0.560731 13.8774 1.54405C12.8941 2.52737 12.3391 3.85939 12.3334 5.25V7H3.58337C2.65512 7 1.76488 7.36875 1.1085 8.02513C0.452123 8.6815 0.083374 9.57174 0.083374 10.5V38.5C0.083374 39.4283 0.452123 40.3185 1.1085 40.9749C1.76488 41.6312 2.65512 42 3.58337 42H42.0834C43.0116 42 43.9019 41.6312 44.5582 40.9749C45.2146 40.3185 45.5834 39.4283 45.5834 38.5V10.5C45.5834 9.57174 45.2146 8.6815 44.5582 8.02513C43.9019 7.36875 43.0116 7 42.0834 7ZM15.8334 5.25C15.8334 4.78587 16.0177 4.34075 16.3459 4.01256C16.6741 3.68437 17.1192 3.5 17.5834 3.5H28.0834C28.5475 3.5 28.9926 3.68437 29.3208 4.01256C29.649 4.34075 29.8334 4.78587 29.8334 5.25V7H15.8334V5.25ZM42.0834 10.5V19.6C36.1782 22.8194 29.5591 24.5043 22.8334 24.5C16.1076 24.5043 9.48854 22.8194 3.58337 19.6V10.5H42.0834ZM18.4584 19.25C18.4584 18.7859 18.6427 18.3408 18.9709 18.0126C19.2991 17.6844 19.7442 17.5 20.2084 17.5H25.4584C25.9225 17.5 26.3676 17.6844 26.6958 18.0126C27.024 18.3408 27.2084 18.7859 27.2084 19.25C27.2084 19.7141 27.024 20.1592 26.6958 20.4874C26.3676 20.8156 25.9225 21 25.4584 21H20.2084C19.7442 21 19.2991 20.8156 18.9709 20.4874C18.6427 20.1592 18.4584 19.7141 18.4584 19.25Z" fill="url(#paint0_linear_6_268)"/>
<defs>
<linearGradient id="paint0_linear_6_268" x1="22.8334" y1="0" x2="22.8334" y2="42" gradientUnits="userSpaceOnUse">
<stop stop-color="#EA14FA"/>
<stop offset="1" stop-color="#2519F9"/>
</linearGradient>
</defs>
</svg>
