<svg width="47" height="41" viewBox="0 0 47 41" fill="none" xmlns="http://www.w3.org/2000/svg">
<path d="M35.7245 38.0587C35.9494 38.3179 36.0941 38.6354 36.1414 38.9733C36.1888 39.3113 36.1368 39.6555 35.9917 39.9652C35.8466 40.2749 35.6144 40.537 35.3227 40.7204C35.031 40.9038 34.6921 41.0009 34.3461 41H12.6539C12.3079 41.0009 11.969 40.9038 11.6773 40.7204C11.3856 40.537 11.1534 40.2749 11.0083 39.9652C10.8632 39.6555 10.8112 39.3113 10.8586 38.9733C10.9059 38.6354 11.0506 38.3179 11.2755 38.0587L22.1216 25.5805C22.2913 25.3832 22.5025 25.2248 22.7405 25.1161C22.9786 25.0075 23.2377 24.9512 23.5 24.9512C23.7623 24.9512 24.0214 25.0075 24.2595 25.1161C24.4975 25.2248 24.7087 25.3832 24.8784 25.5805L35.7245 38.0587ZM41.5769 4.68168e-05H5.42311C4.71011 -0.00290128 4.00357 0.133411 3.34426 0.40112C2.68496 0.668829 2.08594 1.06263 1.58176 1.55981C1.07759 2.05699 0.67824 2.6477 0.406765 3.29786C0.135289 3.94802 -0.0029421 4.64475 4.74754e-05 5.34787V30.3044C-0.0029421 31.0075 0.135289 31.7042 0.406765 32.3544C0.67824 33.0045 1.07759 33.5952 1.58176 34.0924C2.08594 34.5896 2.68496 34.9834 3.34426 35.2511C4.00357 35.5188 4.71011 35.6551 5.42311 35.6522H8.20243C8.33121 35.6495 8.458 35.6204 8.57473 35.5667C8.69144 35.513 8.79552 35.4358 8.88032 35.3402L19.3875 23.2631C19.8945 22.6757 20.5248 22.2039 21.2349 21.8804C21.9449 21.5569 22.7178 21.3893 23.5 21.3893C24.2822 21.3893 25.0551 21.5569 25.7651 21.8804C26.4752 22.2039 27.1055 22.6757 27.6125 23.2631L38.1197 35.3402C38.2045 35.4358 38.3086 35.513 38.4253 35.5667C38.542 35.6204 38.6688 35.6495 38.7976 35.6522H41.5769C42.2899 35.6551 42.9964 35.5188 43.6557 35.2511C44.315 34.9834 44.9141 34.5896 45.4182 34.0924C45.9224 33.5952 46.3218 33.0045 46.5932 32.3544C46.8647 31.7042 47.0029 31.0075 47 30.3044V5.34787C47.0029 4.64475 46.8647 3.94802 46.5932 3.29786C46.3218 2.6477 45.9224 2.05699 45.4182 1.55981C44.9141 1.06263 44.315 0.668829 43.6557 0.40112C42.9964 0.133411 42.2899 -0.00290128 41.5769 4.68168e-05Z" fill="url(#paint0_linear_6_278)"/>
<defs>
<linearGradient id="paint0_linear_6_278" x1="23.5" y1="0" x2="23.5" y2="41" gradientUnits="userSpaceOnUse">
<stop stop-color="#EA14FA"/>
<stop offset="1" stop-color="#2519F9"/>
</linearGradient>
</defs>
</svg>
