<svg width="53" height="37" viewBox="0 0 53 37" fill="none" xmlns="http://www.w3.org/2000/svg">
<path d="M16.1372 18.569C21.5028 18.569 25.5506 14.5766 25.5506 9.28448C25.5506 3.99233 21.5028 0 16.1372 0C10.7716 0 6.72384 3.99233 6.72384 9.28448C6.72384 14.5766 10.7716 18.569 16.1372 18.569ZM18.8268 21.0837H13.4477C6.03263 21.0837 0 27.0338 0 34.3473V37H32.2744V34.3473C32.2744 27.0338 26.2418 21.0837 18.8268 21.0837ZM49.2024 8.59478L37.6374 19.9802L34.1625 16.5529L30.3595 20.3038L37.6374 27.4768L53 12.351L49.2024 8.59478Z" fill="url(#paint0_linear_6_258)"/>
<defs>
<linearGradient id="paint0_linear_6_258" x1="26.5" y1="0" x2="26.5" y2="37" gradientUnits="userSpaceOnUse">
<stop stop-color="#EA14FA"/>
<stop offset="1" stop-color="#2519F9"/>
</linearGradient>
</defs>
</svg>
