<svg width="37" height="43" viewBox="0 0 37 43" fill="none" xmlns="http://www.w3.org/2000/svg">
<path d="M29 28C27.9996 27.9984 27.0091 28.1985 26.0877 28.5883C25.1663 28.9781 24.333 29.5496 23.6375 30.2687L14.9937 24.7187C15.6685 22.969 15.6685 21.031 14.9937 19.2812L23.6375 13.7312C24.8535 14.9748 26.4639 15.7572 28.1931 15.9443C29.9223 16.1314 31.6628 15.7117 33.1167 14.757C34.5705 13.8023 35.6474 12.372 36.1629 10.7109C36.6785 9.04973 36.6006 7.26105 35.9428 5.65097C35.2849 4.04089 34.0878 2.70951 32.5565 1.88472C31.0252 1.05992 29.2549 0.792989 27.5485 1.1296C25.8421 1.46622 24.3057 2.38545 23.2023 3.72997C22.0989 5.07449 21.4972 6.7607 21.5 8.5C21.503 9.4294 21.6745 10.3506 22.0062 11.2187L13.3625 16.7687C12.3218 15.6996 10.9859 14.9652 9.52565 14.6593C8.06536 14.3534 6.54702 14.4901 5.16479 15.0517C3.78256 15.6133 2.59925 16.5745 1.76617 17.8122C0.933088 19.0499 0.488098 20.508 0.488098 22C0.488098 23.492 0.933088 24.9501 1.76617 26.1878C2.59925 27.4255 3.78256 28.3867 5.16479 28.9483C6.54702 29.5099 8.06536 29.6466 9.52565 29.3407C10.9859 29.0348 12.3218 28.3004 13.3625 27.2312L22.0062 32.7812C21.6745 33.6494 21.503 34.5706 21.5 35.5C21.5 36.9834 21.9398 38.4334 22.764 39.6668C23.5881 40.9001 24.7594 41.8614 26.1299 42.4291C27.5003 42.9968 29.0083 43.1453 30.4632 42.8559C31.918 42.5665 33.2544 41.8522 34.3033 40.8033C35.3522 39.7544 36.0665 38.418 36.3559 36.9632C36.6453 35.5083 36.4967 34.0003 35.9291 32.6299C35.3614 31.2594 34.4001 30.0881 33.1668 29.264C31.9334 28.4399 30.4833 28 29 28Z" fill="url(#paint0_linear_6_273)"/>
<defs>
<linearGradient id="paint0_linear_6_273" x1="18.494" y1="0.987793" x2="18.494" y2="43" gradientUnits="userSpaceOnUse">
<stop stop-color="#EA14FA"/>
<stop offset="1" stop-color="#2519F9"/>
</linearGradient>
</defs>
</svg>
